<?xml version="1.0" encoding="utf-8"?>
<!-- Generator: Adobe Illustrator 23.0.2, SVG Export Plug-In . SVG Version: 6.00 Build 0)  -->
<svg version="1.1" id="Layer_1" xmlns="http://www.w3.org/2000/svg" xmlns:xlink="http://www.w3.org/1999/xlink" x="0px" y="0px"
	 viewBox="0 0 26.5 24.5" style="enable-background:new 0 0 26.5 24.5;" xml:space="preserve">
<style type="text/css">
	.st0{fill:#DC382D;}
	.st1{fill:none;stroke:#DC382D;stroke-width:1.5;stroke-miterlimit:10;}
</style>
<g>
	<g>
		<g>
			<polygon class="st0" points="3.8,24.5 0,24.5 0,0 3.8,0 3.8,1.5 1.5,1.5 1.5,23 3.8,23 			"/>
		</g>
		<g>
			<polygon class="st0" points="26.5,24.5 22.8,24.5 22.8,23 25,23 25,1.5 22.8,1.5 22.8,0 26.5,0 			"/>
		</g>
	</g>
	<g>
		<path class="st0" d="M19.2,5.2c0.6,0,1,0.4,1,1s-0.4,1-1,1s-1-0.4-1-1S18.7,5.2,19.2,5.2 M19.2,4.2c-1.1,0-2,0.9-2,2s0.9,2,2,2
			s2-0.9,2-2S20.4,4.2,19.2,4.2L19.2,4.2z"/>
		<path class="st0" d="M19.2,11.2c0.6,0,1,0.4,1,1s-0.4,1-1,1s-1-0.4-1-1S18.7,11.2,19.2,11.2 M19.2,10.2c-1.1,0-2,0.9-2,2
			s0.9,2,2,2s2-0.9,2-2S20.4,10.2,19.2,10.2L19.2,10.2z"/>
		<path class="st0" d="M19.2,17.2c0.6,0,1,0.4,1,1s-0.4,1-1,1s-1-0.4-1-1S18.7,17.2,19.2,17.2 M19.2,16.2c-1.1,0-2,0.9-2,2
			s0.9,2,2,2s2-0.9,2-2S20.4,16.2,19.2,16.2L19.2,16.2z"/>
		<path class="st0" d="M13.2,5.2c0.6,0,1,0.4,1,1s-0.4,1-1,1s-1-0.4-1-1S12.7,5.2,13.2,5.2 M13.2,4.2c-1.1,0-2,0.9-2,2s0.9,2,2,2
			s2-0.9,2-2S14.4,4.2,13.2,4.2L13.2,4.2z"/>
		<circle class="st0" cx="13.2" cy="12.2" r="2"/>
		<path class="st0" d="M13.2,17.2c0.6,0,1,0.4,1,1s-0.4,1-1,1s-1-0.4-1-1S12.7,17.2,13.2,17.2 M13.2,16.2c-1.1,0-2,0.9-2,2
			s0.9,2,2,2s2-0.9,2-2S14.4,16.2,13.2,16.2L13.2,16.2z"/>
		<circle class="st0" cx="7.2" cy="6.2" r="2"/>
		<path class="st0" d="M7.2,11.2c0.6,0,1,0.4,1,1s-0.4,1-1,1s-1-0.4-1-1S6.7,11.2,7.2,11.2 M7.2,10.2c-1.1,0-2,0.9-2,2s0.9,2,2,2
			s2-0.9,2-2S8.4,10.2,7.2,10.2L7.2,10.2z"/>
		<circle class="st0" cx="7.2" cy="18.2" r="2"/>
	</g>
</g>
</svg>
