<svg id="Layer_1" data-name="Layer 1" xmlns="http://www.w3.org/2000/svg" viewBox="0 0 400 360"><defs><style>.cls-1{fill:#16224b;}.cls-2{fill:#fff;}</style></defs><title>GRAPHBLAS</title><rect class="cls-1" width="400" height="360"/><path class="cls-2" d="M209.86,148.87a4.25,4.25,0,0,0-1.86-1.16,4.32,4.32,0,0,0-2.29,0L193,150.75a6.53,6.53,0,0,0-2.46,1.22,9.31,9.31,0,0,0-2,2.21,11.35,11.35,0,0,0-1.35,2.88,11.09,11.09,0,0,0-.5,3.25l0,19.23a8.36,8.36,0,0,0,.48,2.84,5.61,5.61,0,0,0,1.31,2.08,4.3,4.3,0,0,0,1.92,1.11,4.55,4.55,0,0,0,2.34,0l12.62-3.46a6.55,6.55,0,0,0,2.38-1.27,9.17,9.17,0,0,0,1.93-2.2,11.26,11.26,0,0,0,1.31-2.83,11.15,11.15,0,0,0,.48-3.16l0-18.81a8.51,8.51,0,0,0-.45-2.82A5.84,5.84,0,0,0,209.86,148.87Z"/><path class="cls-2" d="M240.18,146.15a6.26,6.26,0,0,1,.66-1.46,3.54,3.54,0,0,1,.77-.89,1.12,1.12,0,0,1,.33-.2l11.83-2.88a10,10,0,0,0,3.92-2,12.71,12.71,0,0,0,2.72-3.09,15.26,15.26,0,0,0,2.33-7.93l.16-18.51a13.24,13.24,0,0,0-.62-4.17,10.41,10.41,0,0,0-2-3.63,8.64,8.64,0,0,0-3.59-2.5,3.68,3.68,0,0,0-.47-.15h0L240.2,94l.07-13.87a13.24,13.24,0,0,0-.65-4.26,10.67,10.67,0,0,0-2.05-3.68A9.08,9.08,0,0,0,234,69.62c-.28-.11-.57-.2-.88-.29h0l-18.65-5a10.48,10.48,0,0,0-2.79-.37,14.15,14.15,0,0,0-2.39.22s-6.65,1.13-8.94,1.5a15.06,15.06,0,0,0-6.7,2.21,13.9,13.9,0,0,0-5.53,11.21v0a.74.74,0,0,1-1.19.59,9.33,9.33,0,0,0-2.46-1.33l-16.54-5a17,17,0,0,0-5.57-1.1,11.94,11.94,0,0,0-1.89.15L148,74.59a12.35,12.35,0,0,0-8.17,5.1,14.72,14.72,0,0,0-2.7,8.67l.14,18.27c0,2.28,0,5.12,1.73,7.89a9.86,9.86,0,0,0,4.23,3.85l.19.09,20,7.16,0,9.73c0,2.3-.11,3.68-.76,4.85a3.73,3.73,0,0,1-1.73,1.72l-11,2.53a15.32,15.32,0,0,0-6.79,2.75,14.94,14.94,0,0,0-5.49,11.66l.4,52.44c0,2.25,0,5.35,2,8.16a12.83,12.83,0,0,0,5.43,4l16.13,8.22a9,9,0,0,0,2.2.78,9.26,9.26,0,0,0,2.05.19,10.14,10.14,0,0,0,2.76-.45l38.29-11.74a11.34,11.34,0,0,0,4-2.22,14.06,14.06,0,0,0,2.82-3.28,15.72,15.72,0,0,0,1.79-3.93,15.49,15.49,0,0,0,.67-4.39v-5.78l19.72,8.64h0a7,7,0,0,0,1.24.43,8,8,0,0,0,2.13.25,9.24,9.24,0,0,0,2.48-.4l11.72-3.6a10.36,10.36,0,0,0,3.79-2.14,13.12,13.12,0,0,0,2.64-3.15,15.13,15.13,0,0,0,1.67-3.76,15.48,15.48,0,0,0,.64-4.19l.15-18.14a12.63,12.63,0,0,0-.63-4.18,10,10,0,0,0-2.1-3.62,8.45,8.45,0,0,0-3.16-2.14l-16.57-6.35.06-10.71A6.09,6.09,0,0,1,240.18,146.15Zm-4.55,23a5.69,5.69,0,0,0,1.23,2.08,3.9,3.9,0,0,0,4,1.11l11.54-3.16a3.68,3.68,0,0,1,2.08,0,3.75,3.75,0,0,1,1.68,1.07,5.28,5.28,0,0,1,1.12,2,8.13,8.13,0,0,1,.39,2.66L257.54,193a10.78,10.78,0,0,1-1.6,5.49,9,9,0,0,1-1.7,2,5.84,5.84,0,0,1-2.08,1.19l-11.71,3.58a3.9,3.9,0,0,1-2.13.09,3.66,3.66,0,0,1-1.74-1,5.18,5.18,0,0,1-1.16-1.94,7.71,7.71,0,0,1-.42-2.69l.11-18.22a8.58,8.58,0,0,0-.44-2.83,5.77,5.77,0,0,0-1.23-2.08,4,4,0,0,0-1.84-1.12,4.14,4.14,0,0,0-2.26,0l-11.83,3.25a6.31,6.31,0,0,0-2.33,1.25,9.3,9.3,0,0,0-1.92,2.19A11.7,11.7,0,0,0,212,185a11.57,11.57,0,0,0-.48,3.16l0,18.61a10.68,10.68,0,0,1-.46,3,11.26,11.26,0,0,1-1.24,2.73,9.39,9.39,0,0,1-1.85,2.14,6.53,6.53,0,0,1-2.27,1.28l-18.8,5.75-19.47,6a4.78,4.78,0,0,1-2.44.14,4.18,4.18,0,0,1-2-1,5.25,5.25,0,0,1-1.37-2,7.92,7.92,0,0,1-.52-2.86l-.31-55.36a10.68,10.68,0,0,1,.49-3.19,11.09,11.09,0,0,1,1.35-2.84,9.39,9.39,0,0,1,2-2.18,6.64,6.64,0,0,1,2.47-1.22l13.28-3.22a6.82,6.82,0,0,0,2.5-1.24,9.63,9.63,0,0,0,2-2.22,11.38,11.38,0,0,0,1.36-2.88,11.1,11.1,0,0,0,.5-3.26l0-19.12a9.35,9.35,0,0,0-.51-3,6.61,6.61,0,0,0-1.38-2.29,4.94,4.94,0,0,0-2.05-1.31,4.81,4.81,0,0,0-2.51-.11l-13.36,2.81a4.76,4.76,0,0,1-4.53-1.38,6.32,6.32,0,0,1-1.4-2.25,8.85,8.85,0,0,1-.52-3l-.12-20.45a10.48,10.48,0,0,1,.5-3.22,10.34,10.34,0,0,1,1.37-2.81,8.46,8.46,0,0,1,2-2.09,6.13,6.13,0,0,1,2.49-1.08l13.7-2.44a4.67,4.67,0,0,1,2.42.19,5,5,0,0,1,2,1.34,6.73,6.73,0,0,1,1.33,2.26,9,9,0,0,1,.49,3l0,19.65a8.92,8.92,0,0,0,.51,3.06,6.4,6.4,0,0,0,1.37,2.3,5,5,0,0,0,2,1.32,4.63,4.63,0,0,0,2.46.11L205.76,113a5.8,5.8,0,0,0,2.3-1.09,8.32,8.32,0,0,0,1.88-2,10.21,10.21,0,0,0,1.26-2.69,10.47,10.47,0,0,0,.47-3.07l.05-19.54a10.54,10.54,0,0,1,.47-3.08,10.25,10.25,0,0,1,1.26-2.67,8.06,8.06,0,0,1,1.87-2,5.36,5.36,0,0,1,2.28-1l12.49-2.23a4.06,4.06,0,0,1,2.2.2,4.44,4.44,0,0,1,1.79,1.3,6.37,6.37,0,0,1,1.2,2.18,9.05,9.05,0,0,1,.43,2.84l-.12,19.12a8.92,8.92,0,0,0,.43,2.82,6,6,0,0,0,1.18,2.12,4.31,4.31,0,0,0,1.76,1.23,4,4,0,0,0,2.16.13L253,103a3.81,3.81,0,0,1,2.1.14,4,4,0,0,1,1.69,1.2,5.93,5.93,0,0,1,1.13,2.08,8.46,8.46,0,0,1,.4,2.75l-.18,18.52a10.17,10.17,0,0,1-.44,2.92,10.37,10.37,0,0,1-1.17,2.57,7.87,7.87,0,0,1-1.72,2,5.47,5.47,0,0,1-2.1,1.08l-11.82,2.87a5.41,5.41,0,0,0-2.16,1.1,8,8,0,0,0-1.77,2,10.52,10.52,0,0,0-1.21,2.63,10.71,10.71,0,0,0-.46,3l-.1,18.42A8.75,8.75,0,0,0,235.63,169.12Z"/><path class="cls-2" d="M105.15,283.74H97.7v11.84H90.39V264.19h17.13c7,0,11.26,3.58,11.26,9.73,0,4.75-2.55,8.65-7.22,8.65v.18L120,295.58h-7.31Zm-7.45-6.1h8.88c3.32,0,4.67-.76,4.67-3.63s-1.39-3.54-4.67-3.54H97.7Z"/><path class="cls-2" d="M134.34,264.19h10l12.78,31.39h-7.58l-2.65-6.68H131.79l-2.69,6.68h-7.63Zm10.14,18.29-2.92-7.13-2.1-5.56h-.23l-2.11,5.56-2.91,7.13Z"/><path class="cls-2" d="M187.5,274.41c0,6.19-3.63,10.5-11.84,10.5h-8.48v10.67h-7.31V264.19h15.79C183.51,264.19,187.5,267.82,187.5,274.41Zm-7.54,0c0-3-1.43-3.94-4.26-3.94h-8.52v8.16h8.52C178.66,278.63,180,277.42,180,274.41Z"/><path class="cls-2" d="M221.85,264.19v31.39h-7.26V282.75H198v12.83h-7.31V264.19H198v11.88h16.55V264.19Z"/><path class="cls-2" d="M247.73,279.7c5.07.23,8.39,3.1,8.39,7.05,0,5.51-3.73,8.83-9.51,8.83H227.37V264.19h17.49c6.32,0,9.91,3.05,9.91,8,0,3.77-2.65,6.87-7,7.4Zm-13.19-2.87h9.6a3,3,0,0,0,3.27-3.31c0-1.93-1.43-3-3.58-3h-9.29Zm14,9c0-2-1.48-3.09-4-3.09h-10v6.46h10.18C247.24,289.17,248.49,288,248.49,285.8Z"/><path class="cls-2" d="M284.08,288.85v6.73H260.31V264.19h7.35v24.66Z"/><path class="cls-2" d="M298.93,264.19H309l12.78,31.39h-7.58l-2.65-6.68H296.37l-2.69,6.68h-7.62Zm10.14,18.29-2.92-7.13L304,269.79h-.22l-2.11,5.56-2.91,7.13Z"/><path class="cls-2" d="M321.74,286.12l7.27-1.84c.63,4.17,3.5,5.6,8.25,5.6,4.26,0,6.55-.85,6.5-3.09,0-1.88-1.3-2.42-5.38-3.09l-6.55-1.13c-5.42-.89-9.28-4.12-9.41-9.37-.09-6.23,6.05-9.46,13.32-9.46,8.88,0,13.45,3.14,14.26,9.42L343.27,275c-.4-4.17-2.91-5-7.49-5-4,0-6,1-6,3s1.48,2.56,5.74,3.19l5.88.89c5.6.9,9.5,3.95,9.59,8.75.14,6.73-6,10.18-13.76,10.18C328.56,296,323,292.8,321.74,286.12Z"/><path class="cls-2" d="M85,295.58l-.09-16.41,0-.05H68.48v5.4h7.57a9.69,9.69,0,0,1-8.74,4.87c-7.8,0-10.63-2.06-10.72-9.51-.09-7.13,3.46-9.46,10.9-9.5,6.06,0,8.39,2.1,9.55,6.14l7.4-1.39c-1.3-7.31-8.29-11.39-17.13-11.39C56.77,263.74,49,269.66,49,280,49,289.75,56.14,296,66.06,296a15.08,15.08,0,0,0,13.81-8v7.55Z"/></svg>