<svg id="Layer_1" data-name="Layer 1" xmlns="http://www.w3.org/2000/svg" viewBox="0 0 1000 360"><defs><style>.cls-1{fill:#16224b;}.cls-2{fill:#18e1d9;}</style></defs><title>GRAPHBLAS</title><rect class="cls-1" y="0.5" width="1000" height="360"/><path class="cls-2" d="M188,180.55a4.27,4.27,0,0,0-4.22-1.22l-12.86,3.13a6.41,6.41,0,0,0-2.49,1.24,9.36,9.36,0,0,0-2,2.24,11,11,0,0,0-1.38,2.93,10.71,10.71,0,0,0-.5,3.29l0,19.52a8.1,8.1,0,0,0,.49,2.89,5.63,5.63,0,0,0,1.32,2.11,4.32,4.32,0,0,0,2,1.12,4.59,4.59,0,0,0,2.38,0l12.81-3.52A6.55,6.55,0,0,0,185.9,213a9.72,9.72,0,0,0,2-2.24,11.56,11.56,0,0,0,1.32-2.87,11.2,11.2,0,0,0,.49-3.21l0-19.1a8.54,8.54,0,0,0-.46-2.86A6,6,0,0,0,188,180.55Z"/><path class="cls-2" d="M218.78,177.79a5.87,5.87,0,0,1,.67-1.48,3.86,3.86,0,0,1,.77-.9,1.14,1.14,0,0,1,.34-.21l12-2.92a10,10,0,0,0,4-2,12.67,12.67,0,0,0,2.76-3.13,15,15,0,0,0,1.72-3.79,15.55,15.55,0,0,0,.65-4.26l.16-18.79a13.43,13.43,0,0,0-.63-4.24,10.63,10.63,0,0,0-2-3.68,8.89,8.89,0,0,0-3.64-2.54,3.82,3.82,0,0,0-.48-.15h0l-16.26-4.83.07-14.08a13.68,13.68,0,0,0-.66-4.33,10.87,10.87,0,0,0-2.08-3.73,9.27,9.27,0,0,0-3.64-2.6,7.14,7.14,0,0,0-.89-.29h0l-18.93-5.07a10.92,10.92,0,0,0-2.84-.38,14.56,14.56,0,0,0-2.42.23s-6.75,1.14-9.08,1.52a15.32,15.32,0,0,0-6.81,2.24,14.14,14.14,0,0,0-5.6,11.39h0a.76.76,0,0,1-1.22.6,9.65,9.65,0,0,0-2.48-1.35l-16.8-5a17.33,17.33,0,0,0-5.66-1.12,11.11,11.11,0,0,0-1.91.16l-12.69,2.15a12.52,12.52,0,0,0-8.29,5.17,15,15,0,0,0-2.74,8.81l.15,18.54c0,2.31,0,5.19,1.75,8a10,10,0,0,0,4.29,3.91l.19.09L140.77,157l0,9.87c0,2.34-.11,3.74-.77,4.93a3.74,3.74,0,0,1-1.76,1.74l-11.13,2.57a15.56,15.56,0,0,0-6.89,2.8,15.13,15.13,0,0,0-5.58,11.83l.4,53.24c0,2.29,0,5.43,2,8.28a13,13,0,0,0,5.51,4.09L139,264.65a9.18,9.18,0,0,0,2.22.79,9.05,9.05,0,0,0,2.08.19,10.12,10.12,0,0,0,2.81-.45L185,253.25a11.4,11.4,0,0,0,4-2.24,14.52,14.52,0,0,0,2.87-3.33,16.15,16.15,0,0,0,1.81-4,15.62,15.62,0,0,0,.68-4.46v-5.86l20,8.76h0a8,8,0,0,0,3.43.69,8.78,8.78,0,0,0,2.51-.41l11.9-3.64a10.73,10.73,0,0,0,3.84-2.18,13.57,13.57,0,0,0,2.69-3.2,16.09,16.09,0,0,0,1.69-3.81,15.67,15.67,0,0,0,.65-4.26l.15-18.42a12.77,12.77,0,0,0-.64-4.24,9.91,9.91,0,0,0-2.13-3.67,8.39,8.39,0,0,0-3.21-2.17l-16.82-6.45.06-10.88A5.83,5.83,0,0,1,218.78,177.79Zm-4.62,23.32a5.84,5.84,0,0,0,1.24,2.11,4.07,4.07,0,0,0,1.85,1.15,4.14,4.14,0,0,0,2.26,0l11.71-3.21a3.69,3.69,0,0,1,3.82,1.07,5.68,5.68,0,0,1,1.14,2,8.4,8.4,0,0,1,.39,2.71l-.17,18.42a10.67,10.67,0,0,1-.45,2.93,11,11,0,0,1-1.17,2.64,8.85,8.85,0,0,1-1.73,2.07,5.68,5.68,0,0,1-2.12,1.21l-11.88,3.64a3.91,3.91,0,0,1-2.16.09,3.8,3.8,0,0,1-1.77-1,5.34,5.34,0,0,1-1.18-2,8,8,0,0,1-.42-2.73l.1-18.5a8.58,8.58,0,0,0-.44-2.88,5.92,5.92,0,0,0-1.24-2.11,4.06,4.06,0,0,0-4.17-1.11l-12,3.29a6.44,6.44,0,0,0-2.37,1.27,9.78,9.78,0,0,0-2,2.22,11.73,11.73,0,0,0-1.32,2.87,11.54,11.54,0,0,0-.49,3.2l0,18.9a10.51,10.51,0,0,1-.47,3.06,11.42,11.42,0,0,1-1.26,2.77,9.47,9.47,0,0,1-1.87,2.18,6.59,6.59,0,0,1-2.31,1.3l-19.08,5.84-19.77,6a4.93,4.93,0,0,1-2.48.14,4.34,4.34,0,0,1-2-1.05,5.55,5.55,0,0,1-1.39-2.08,7.89,7.89,0,0,1-.52-2.9l-.32-56.2a10.74,10.74,0,0,1,.49-3.24,11.27,11.27,0,0,1,1.38-2.88,9.49,9.49,0,0,1,2-2.22,6.64,6.64,0,0,1,2.5-1.23L158,185.59a6.69,6.69,0,0,0,2.53-1.26,9.1,9.1,0,0,0,2.06-2.25,11.22,11.22,0,0,0,1.89-6.23l0-19.4a9.16,9.16,0,0,0-.52-3.1,6.62,6.62,0,0,0-1.39-2.32,5,5,0,0,0-2.08-1.33,4.79,4.79,0,0,0-2.56-.11l-13.56,2.85a5,5,0,0,1-2.52-.1,5,5,0,0,1-2.08-1.3,6.48,6.48,0,0,1-1.41-2.28,8.86,8.86,0,0,1-.54-3L137.68,125a10.54,10.54,0,0,1,.5-3.27,10.21,10.21,0,0,1,1.39-2.85,8.75,8.75,0,0,1,2.07-2.13,6.31,6.31,0,0,1,2.53-1.09l13.91-2.48a4.72,4.72,0,0,1,2.46.2,5,5,0,0,1,2,1.35,6.89,6.89,0,0,1,1.35,2.3,9,9,0,0,1,.5,3l0,19.95a9.22,9.22,0,0,0,.52,3.11,6.71,6.71,0,0,0,1.39,2.34,5,5,0,0,0,2.06,1.33,4.78,4.78,0,0,0,2.5.12l12.94-2.73a5.91,5.91,0,0,0,2.34-1.1,8.39,8.39,0,0,0,1.91-2.06,10.52,10.52,0,0,0,1.28-2.73,10.81,10.81,0,0,0,.47-3.12l0-19.83a10.5,10.5,0,0,1,.48-3.13,10.1,10.1,0,0,1,1.28-2.71,8,8,0,0,1,1.9-2,5.51,5.51,0,0,1,2.31-1l12.68-2.26a4.11,4.11,0,0,1,2.24.21,4.54,4.54,0,0,1,1.82,1.31,6.53,6.53,0,0,1,1.21,2.21,8.81,8.81,0,0,1,.43,2.89l-.11,19.41a8.85,8.85,0,0,0,.43,2.86,6.18,6.18,0,0,0,1.2,2.16,4.43,4.43,0,0,0,1.79,1.24,4,4,0,0,0,2.19.13L231.8,134a3.82,3.82,0,0,1,2.13.13,4.19,4.19,0,0,1,1.72,1.23,6,6,0,0,1,1.15,2.11,8.67,8.67,0,0,1,.4,2.79l-.18,18.8a10.82,10.82,0,0,1-.45,3,10.41,10.41,0,0,1-1.19,2.62,8.22,8.22,0,0,1-1.74,2,5.64,5.64,0,0,1-2.13,1.1l-12,2.91a5.78,5.78,0,0,0-2.19,1.12,8.72,8.72,0,0,0-1.8,2,10.73,10.73,0,0,0-1.22,2.68,10.52,10.52,0,0,0-.46,3l-.11,18.7A8.69,8.69,0,0,0,214.16,201.11Z"/><path class="cls-2" d="M386.12,209.32H371v24.07H356.13V169.57H391c14.22,0,22.88,7.3,22.88,19.79,0,9.66-5.2,17.59-14.68,17.59v.37l17.23,26.07H401.53ZM371,196.92H389c6.75,0,9.48-1.55,9.48-7.38s-2.82-7.2-9.48-7.2H371Z"/><path class="cls-2" d="M445.47,169.57h20.42l26,63.82h-15.4l-5.38-13.58H440.28l-5.47,13.58h-15.5Zm20.6,37.2-5.92-14.5L455.86,181h-.45l-4.29,11.3-5.92,14.5Z"/><path class="cls-2" d="M553.53,190.36c0,12.58-7.39,21.33-24.07,21.33H512.23v21.7H497.37V169.57h32.09C545.41,169.57,553.53,177,553.53,190.36Zm-15.32,0c0-6-2.92-8-8.66-8H512.23v16.59h17.32C535.57,198.93,538.21,196.47,538.21,190.36Z"/><path class="cls-2" d="M623.36,169.57v63.82H608.59V207.32H575v26.07H560.09V169.57H575v24.16h33.64V169.57Z"/><path class="cls-2" d="M676,201.12c10.31.45,17,6.29,17,14.31,0,11.21-7.57,18-19.33,18h-39.1V169.57h35.55c12.85,0,20.15,6.2,20.15,16.32,0,7.66-5.38,14-14.32,15Zm-26.8-5.84h19.51c4.19,0,6.66-2.46,6.66-6.74,0-3.92-2.92-6-7.3-6H649.16Zm28.35,18.24c0-4.11-3-6.3-8.11-6.3H649.16v13.13h20.7C675,220.35,677.51,218,677.51,213.52Z"/><path class="cls-2" d="M749.85,219.71v13.68H701.53V169.57h15v50.14Z"/><path class="cls-2" d="M780.05,169.57h20.42l26,63.82H811l-5.37-13.58H774.85l-5.47,13.58h-15.5Zm20.6,37.2-5.92-14.5L790.44,181H790l-4.28,11.3-5.93,14.5Z"/><path class="cls-2" d="M826.42,214.15l14.77-3.73c1.28,8.47,7.11,11.39,16.77,11.39,8.67,0,13.31-1.73,13.22-6.29-.09-3.83-2.64-4.92-10.94-6.29L846.93,207c-11-1.82-18.87-8.39-19.14-19-.18-12.67,12.31-19.24,27.08-19.24,18,0,27.34,6.38,29,19.15l-13.68,3.83c-.82-8.48-5.92-10.21-15.22-10.21-8.12,0-12.22,2.09-12.22,6.1s3,5.2,11.67,6.48l11.94,1.82c11.4,1.82,19.33,8,19.51,17.78.27,13.67-12.12,20.69-28,20.69C840.28,234.3,828.88,227.74,826.42,214.15Z"/><path class="cls-2" d="M345.22,233.39,345,200l-.09-.09H311.58v11H327c-3.24,5.63-9.16,9.91-17.76,9.91-15.86,0-21.6-4.19-21.79-19.33-.18-14.49,7-19.23,22.16-19.32,12.3.09,17,4.28,19.41,12.49l15-2.83c-2.64-14.86-16.86-23.15-34.82-23.15-21.42,0-37.19,12-37.19,33,0,19.87,14.49,32.63,34.64,32.63,15.26,0,24.51-9,28.07-16.27v15.36Z"/></svg>