<svg id="Layer_1" data-name="Layer 1" xmlns="http://www.w3.org/2000/svg" viewBox="0 0 400 360"><defs><style>.cls-1{fill:#16224b;}.cls-2{fill:#fff;}</style></defs><title>GRAPHBLAS</title><rect class="cls-1" width="400" height="360"/><path class="cls-2" d="M215.84,180.88a6.76,6.76,0,0,0-6.67-1.94l-20.35,4.95a10.35,10.35,0,0,0-3.94,2,14.91,14.91,0,0,0-3.23,3.55,18.23,18.23,0,0,0-2.18,4.63,17.87,17.87,0,0,0-.79,5.21l0,30.88a13.3,13.3,0,0,0,.77,4.57,9.19,9.19,0,0,0,2.09,3.33,6.81,6.81,0,0,0,3.09,1.78,7.33,7.33,0,0,0,3.77-.07l20.26-5.57a10.37,10.37,0,0,0,3.81-2,15.21,15.21,0,0,0,3.11-3.53,18.14,18.14,0,0,0,2.09-4.55,17.65,17.65,0,0,0,.78-5.07l.06-30.21a13.37,13.37,0,0,0-.72-4.53A9.25,9.25,0,0,0,215.84,180.88Z"/><path class="cls-2" d="M264.52,176.51a9.7,9.7,0,0,1,1.07-2.35,5.78,5.78,0,0,1,1.22-1.42,2,2,0,0,1,.53-.33l19-4.62a16,16,0,0,0,6.3-3.19,20.57,20.57,0,0,0,4.37-5,24.46,24.46,0,0,0,3.73-12.72l.26-29.73a21,21,0,0,0-1-6.7,16.72,16.72,0,0,0-3.22-5.83,13.93,13.93,0,0,0-5.76-4q-.36-.14-.75-.24h0l-25.73-7.64.12-22.28a21.39,21.39,0,0,0-1.05-6.84,17.32,17.32,0,0,0-3.29-5.91,14.51,14.51,0,0,0-5.75-4.11,14.82,14.82,0,0,0-1.42-.46h0l-29.95-8a16.93,16.93,0,0,0-4.49-.59,22.86,22.86,0,0,0-3.83.36s-10.67,1.8-14.36,2.4c-3.17.51-7.15,1-10.76,3.55-5.41,3.79-8.81,10.69-8.87,18v0a1.2,1.2,0,0,1-1.92,1,14.91,14.91,0,0,0-3.94-2.13l-26.56-8a27.75,27.75,0,0,0-9-1.78,18,18,0,0,0-3,.26l-20.07,3.4a19.8,19.8,0,0,0-13.12,8.19A23.69,23.69,0,0,0,99,83.71L99.22,113c0,3.66.07,8.22,2.78,12.68a15.81,15.81,0,0,0,6.79,6.17l.3.15,32,11.49.05,15.63c0,3.69-.17,5.91-1.21,7.78a5.94,5.94,0,0,1-2.79,2.77l-17.6,4.06c-3.23.68-7.25,1.53-10.91,4.42a24,24,0,0,0-8.82,18.72l.64,84.21c0,3.62,0,8.59,3.18,13.11,2.45,3.5,6.07,5.21,8.72,6.47l25.91,13.2a13.78,13.78,0,0,0,3.52,1.24,14.46,14.46,0,0,0,3.29.32,16,16,0,0,0,4.45-.73l61.48-18.86a18,18,0,0,0,6.38-3.55,22.94,22.94,0,0,0,4.54-5.26,25.82,25.82,0,0,0,2.88-6.32,24.51,24.51,0,0,0,1.06-7.06v-9.27l31.67,13.87h0a14,14,0,0,0,2,.69,13.14,13.14,0,0,0,3.43.39,14.51,14.51,0,0,0,4-.64l18.81-5.77a16.85,16.85,0,0,0,6.09-3.45,21.58,21.58,0,0,0,4.24-5.05,24.76,24.76,0,0,0,2.68-6,24.48,24.48,0,0,0,1-6.74l.25-29.13a20.44,20.44,0,0,0-1-6.72,16.14,16.14,0,0,0-3.37-5.8,13.33,13.33,0,0,0-5.08-3.44L264,196.38l.08-17.2A10,10,0,0,1,264.52,176.51Zm-7.3,36.87a9.19,9.19,0,0,0,2,3.35,6.5,6.5,0,0,0,2.92,1.82,6.6,6.6,0,0,0,3.58,0l18.52-5.09a6.11,6.11,0,0,1,3.34,0,6,6,0,0,1,2.71,1.72,8.65,8.65,0,0,1,1.79,3.14,13,13,0,0,1,.63,4.28l-.27,29.15a17.2,17.2,0,0,1-.71,4.63,17.56,17.56,0,0,1-1.86,4.18,14,14,0,0,1-2.74,3.27,9.19,9.19,0,0,1-3.34,1.92L265,271.46a6.34,6.34,0,0,1-3.41.14,5.89,5.89,0,0,1-2.79-1.63,8.27,8.27,0,0,1-1.88-3.12,12.81,12.81,0,0,1-.67-4.32l.17-29.26a13.67,13.67,0,0,0-.7-4.55,9,9,0,0,0-2-3.33,6.48,6.48,0,0,0-2.95-1.81,6.73,6.73,0,0,0-3.64,0l-19,5.21a10.27,10.27,0,0,0-3.74,2,15,15,0,0,0-3.08,3.51,18.43,18.43,0,0,0-2.09,4.54,17.7,17.7,0,0,0-.77,5.07l-.07,29.89a16.85,16.85,0,0,1-.74,4.84,17.77,17.77,0,0,1-2,4.38,15.18,15.18,0,0,1-3,3.46,10.6,10.6,0,0,1-3.64,2.05l-30.19,9.23-31.26,9.57a8,8,0,0,1-3.93.23,6.92,6.92,0,0,1-3.23-1.67,8.7,8.7,0,0,1-2.2-3.28,12.82,12.82,0,0,1-.83-4.59l-.5-88.9a17.06,17.06,0,0,1,.78-5.13,17.93,17.93,0,0,1,2.18-4.56,14.89,14.89,0,0,1,3.24-3.5,10.78,10.78,0,0,1,4-1.95l21.33-5.18a10.78,10.78,0,0,0,4-2,15.06,15.06,0,0,0,3.26-3.56,18.08,18.08,0,0,0,3-9.86l0-30.7a14.74,14.74,0,0,0-.82-4.89,10.54,10.54,0,0,0-2.21-3.68,7.68,7.68,0,0,0-7.33-2.28l-21.45,4.52a7.67,7.67,0,0,1-7.28-2.22,10.17,10.17,0,0,1-2.23-3.61,13.79,13.79,0,0,1-.85-4.82l-.18-32.83a17,17,0,0,1,3-9.69,13.46,13.46,0,0,1,3.28-3.36,9.94,9.94,0,0,1,4-1.73l22-3.92a7.45,7.45,0,0,1,3.89.31,7.83,7.83,0,0,1,3.17,2.14,10.66,10.66,0,0,1,2.14,3.64,14.63,14.63,0,0,1,.79,4.77l.05,31.56a14.58,14.58,0,0,0,.81,4.92,10.54,10.54,0,0,0,2.21,3.7,7.8,7.8,0,0,0,3.25,2.1,7.43,7.43,0,0,0,4,.19l20.47-4.31a9.44,9.44,0,0,0,3.7-1.74,13.33,13.33,0,0,0,3-3.27,16.34,16.34,0,0,0,2-4.32,16.8,16.8,0,0,0,.75-4.92l.07-31.38a16.89,16.89,0,0,1,.76-4.94,16,16,0,0,1,2-4.29,12.93,12.93,0,0,1,3-3.19,9,9,0,0,1,3.66-1.62L248.31,60a6.51,6.51,0,0,1,3.55.32,7.23,7.23,0,0,1,2.87,2.08,10.18,10.18,0,0,1,1.92,3.5,14.28,14.28,0,0,1,.69,4.57l-.19,30.7a14.49,14.49,0,0,0,.68,4.52,9.8,9.8,0,0,0,1.91,3.41,6.74,6.74,0,0,0,2.83,2,6.33,6.33,0,0,0,3.47.21l19.08-4a6,6,0,0,1,3.37.21,6.68,6.68,0,0,1,2.73,1.94,9.5,9.5,0,0,1,1.81,3.33,14.21,14.21,0,0,1,.64,4.42l-.29,29.73a16.88,16.88,0,0,1-2.59,8.83,13.08,13.08,0,0,1-2.76,3.16,8.81,8.81,0,0,1-3.37,1.73l-19,4.61a9,9,0,0,0-3.46,1.76,13.35,13.35,0,0,0-2.85,3.23,17.16,17.16,0,0,0-2.67,9l-.17,29.57A13.75,13.75,0,0,0,257.22,213.38Z"/></svg>