<svg id="Layer_1" data-name="Layer 1" xmlns="http://www.w3.org/2000/svg" viewBox="0 0 400 360"><defs><style>.cls-1{fill:#027bf7;}.cls-2{fill:#16224b;}.cls-3{fill:#fff;}</style></defs><title>GRAPHBLAS</title><rect class="cls-1" width="400" height="360"/><path class="cls-2" d="M290.63,206.58a13.33,13.33,0,0,1,5.08,3.44,16.14,16.14,0,0,1,3.37,5.8,20.44,20.44,0,0,1,1,6.72l-.25,29.13a24.48,24.48,0,0,1-1,6.74,24.76,24.76,0,0,1-2.68,6,21.58,21.58,0,0,1-4.24,5.05,16.85,16.85,0,0,1-6.09,3.45L267,278.71a14.51,14.51,0,0,1-4,.64,13.14,13.14,0,0,1-3.43-.39,14,14,0,0,1-2-.69h0l-31.67-13.87v9.27a24.51,24.51,0,0,1-1.06,7.06,25.82,25.82,0,0,1-2.88,6.32,22.94,22.94,0,0,1-4.54,5.26,18,18,0,0,1-6.38,3.55l-61.48,18.86a16,16,0,0,1-4.45.73,14.46,14.46,0,0,1-3.29-.32,13.78,13.78,0,0,1-3.52-1.24L112.4,300.7c-2.65-1.26-6.27-3-8.72-6.47-3.16-4.52-3.17-9.49-3.18-13.11l-.64-84.21a24,24,0,0,1,8.82-18.72c3.66-2.89,7.68-3.74,10.91-4.42l17.6-4.06a5.94,5.94,0,0,0,2.79-2.77c1-1.87,1.23-4.09,1.21-7.78l-.05-15.63-32-11.49-.3-.15a15.81,15.81,0,0,1-6.79-6.17c-2.72-4.46-2.75-9-2.78-12.68L99,83.71a23.69,23.69,0,0,1,4.32-13.92,19.8,19.8,0,0,1,13.12-8.19l20.07-3.4a18,18,0,0,1,3-.26,27.75,27.75,0,0,1,9,1.78l26.56,8A14.91,14.91,0,0,1,179,69.83a1.2,1.2,0,0,0,1.92-1v0c.06-7.32,3.46-14.22,8.87-18,3.61-2.54,7.59-3,10.76-3.55,3.69-.6,14.36-2.4,14.36-2.4a22.86,22.86,0,0,1,3.83-.36,16.93,16.93,0,0,1,4.49.59l29.95,8h0a14.82,14.82,0,0,1,1.42.46,14.51,14.51,0,0,1,5.75,4.11,17.32,17.32,0,0,1,3.29,5.91,21.39,21.39,0,0,1,1.05,6.84l-.12,22.28,25.73,7.64h0q.39.1.75.24a13.93,13.93,0,0,1,5.76,4,16.72,16.72,0,0,1,3.22,5.83,21,21,0,0,1,1,6.7l-.26,29.73A24.46,24.46,0,0,1,297,159.64a20.57,20.57,0,0,1-4.37,5,16,16,0,0,1-6.3,3.19l-19,4.62a2,2,0,0,0-.53.33,5.78,5.78,0,0,0-1.22,1.42,9.7,9.7,0,0,0-1.07,2.35,10,10,0,0,0-.41,2.67l-.08,17.2Z"/><path class="cls-3" d="M136.89,209.17a17.06,17.06,0,0,1,.78-5.13,17.93,17.93,0,0,1,2.18-4.56,14.89,14.89,0,0,1,3.24-3.5,10.78,10.78,0,0,1,4-1.95l21.33-5.18a10.78,10.78,0,0,0,4-2,15.06,15.06,0,0,0,3.26-3.56,18.08,18.08,0,0,0,3-9.86l0-30.7a14.24,14.24,0,0,0-.82-4.89,10.54,10.54,0,0,0-2.21-3.68,7.68,7.68,0,0,0-7.33-2.28l-21.45,4.52a7.67,7.67,0,0,1-7.28-2.22,10.17,10.17,0,0,1-2.23-3.61,13.79,13.79,0,0,1-.85-4.82l-.18-32.83a17,17,0,0,1,3-9.69,13.46,13.46,0,0,1,3.28-3.36,9.94,9.94,0,0,1,4-1.73l22-3.92a7.45,7.45,0,0,1,3.89.31,7.83,7.83,0,0,1,3.17,2.14,10.66,10.66,0,0,1,2.14,3.64,14.63,14.63,0,0,1,.79,4.77l.05,31.56a14.58,14.58,0,0,0,.81,4.92,10.54,10.54,0,0,0,2.21,3.7,7.8,7.8,0,0,0,3.25,2.1,7.43,7.43,0,0,0,4,.19l20.47-4.31a9.44,9.44,0,0,0,3.7-1.74,13.33,13.33,0,0,0,3-3.27,16.34,16.34,0,0,0,2-4.32,16.8,16.8,0,0,0,.75-4.92l.07-31.38a17.23,17.23,0,0,1,.76-4.94,16,16,0,0,1,2-4.29,12.93,12.93,0,0,1,3-3.19,9,9,0,0,1,3.66-1.62L248.31,60a6.51,6.51,0,0,1,3.55.32,7.23,7.23,0,0,1,2.87,2.08,10.18,10.18,0,0,1,1.92,3.5,14.28,14.28,0,0,1,.69,4.57l-.19,30.7a14.49,14.49,0,0,0,.68,4.52,9.8,9.8,0,0,0,1.91,3.41,6.74,6.74,0,0,0,2.83,2,6.33,6.33,0,0,0,3.47.21l19.08-4a6,6,0,0,1,3.37.21,6.68,6.68,0,0,1,2.73,1.94,9.5,9.5,0,0,1,1.81,3.33,13.93,13.93,0,0,1,.63,4.42l-.28,29.73a16.88,16.88,0,0,1-2.59,8.83,13.08,13.08,0,0,1-2.76,3.16,8.81,8.81,0,0,1-3.37,1.73l-19,4.61a9,9,0,0,0-3.46,1.76,13.56,13.56,0,0,0-2.85,3.23,17.16,17.16,0,0,0-2.67,9l-.17,29.57a13.75,13.75,0,0,0,.7,4.57,9.19,9.19,0,0,0,2,3.35,6.5,6.5,0,0,0,2.92,1.82,6.6,6.6,0,0,0,3.58,0l18.52-5.09a6.11,6.11,0,0,1,3.34,0,6,6,0,0,1,2.71,1.72,8.65,8.65,0,0,1,1.79,3.14,13,13,0,0,1,.63,4.28l-.27,29.15a17.2,17.2,0,0,1-.71,4.63,17.56,17.56,0,0,1-1.86,4.18,14,14,0,0,1-2.74,3.27,9.19,9.19,0,0,1-3.34,1.92L265,271.46a6.34,6.34,0,0,1-3.41.14,5.89,5.89,0,0,1-2.79-1.63,8.27,8.27,0,0,1-1.88-3.12,12.81,12.81,0,0,1-.67-4.32l.17-29.26a13.67,13.67,0,0,0-.7-4.55,9,9,0,0,0-2-3.33,6.48,6.48,0,0,0-2.95-1.81,6.73,6.73,0,0,0-3.64,0l-19,5.21a10.27,10.27,0,0,0-3.74,2,15,15,0,0,0-3.08,3.51,18.43,18.43,0,0,0-2.09,4.54,17.7,17.7,0,0,0-.77,5.07l-.07,29.89a16.51,16.51,0,0,1-.74,4.84,17.77,17.77,0,0,1-2,4.38,15.18,15.18,0,0,1-3,3.46,10.6,10.6,0,0,1-3.64,2.05l-30.19,9.23-31.26,9.57a8,8,0,0,1-3.93.23,6.92,6.92,0,0,1-3.23-1.67,8.7,8.7,0,0,1-2.2-3.28,12.82,12.82,0,0,1-.83-4.59ZM218.5,219l.06-30.21a13.37,13.37,0,0,0-.72-4.53,9.39,9.39,0,0,0-2-3.36,6.76,6.76,0,0,0-6.67-1.94l-20.35,4.95a10.35,10.35,0,0,0-3.94,2,14.91,14.91,0,0,0-3.23,3.55,18.23,18.23,0,0,0-2.18,4.63,17.87,17.87,0,0,0-.79,5.21l0,30.88a13.3,13.3,0,0,0,.77,4.57,9.19,9.19,0,0,0,2.09,3.33,6.81,6.81,0,0,0,3.09,1.78,7.33,7.33,0,0,0,3.77-.07l20.26-5.57a10.37,10.37,0,0,0,3.81-2,15.21,15.21,0,0,0,3.11-3.53,18.14,18.14,0,0,0,2.09-4.55,17.6,17.6,0,0,0,.78-5.07"/></svg>