<?xml version="1.0" encoding="utf-8"?>
<!-- Generator: Adobe Illustrator 23.0.1, SVG Export Plug-In . SVG Version: 6.00 Build 0)  -->
<svg version="1.1" id="Layer_1" xmlns="http://www.w3.org/2000/svg" xmlns:xlink="http://www.w3.org/1999/xlink" x="0px" y="0px"
	 viewBox="0 0 149.92 152.42" style="enable-background:new 0 0 149.92 152.42;" xml:space="preserve">
<style type="text/css">
	.st0{fill:#FFFFFF;stroke:#B52925;stroke-width:2.6845;stroke-miterlimit:10;}
	.st1{fill:#B52925;}
	.st2{fill:#B52925;stroke:#B52B26;stroke-width:1.256;stroke-miterlimit:10;}
	.st3{fill:none;stroke:#B52925;stroke-width:1.0183;stroke-miterlimit:10;}
</style>
<g>
	<circle class="st0" cx="75.04" cy="75.54" r="60.72"/>
	<g>
		<path class="st1" d="M44.52,48.4v55.43h4.08c0.87,0,1.58,0.27,2.13,0.81c0.56,0.54,0.83,1.19,0.83,1.93v4.41H34.95V41.25h16.61
			v4.38c0,0.77-0.28,1.42-0.83,1.96c-0.56,0.54-1.27,0.81-2.13,0.81H44.52z"/>
	</g>
	<g>
		<path class="st1" d="M106.68,103.83V48.4h-4.08c-0.87,0-1.58-0.27-2.13-0.81c-0.56-0.54-0.83-1.19-0.83-1.93v-4.41h16.61v69.74
			H99.64v-4.38c0-0.77,0.28-1.42,0.83-1.96c0.56-0.54,1.27-0.81,2.13-0.81H106.68z"/>
	</g>
	<g>
		<circle class="st2" cx="57.74" cy="59.61" r="4.92"/>
		<circle class="st3" cx="75.6" cy="59.61" r="4.92"/>
		<circle class="st3" cx="93.46" cy="59.61" r="4.92"/>
		<circle class="st3" cx="57.74" cy="76.12" r="4.92"/>
		<circle class="st2" cx="75.6" cy="76.12" r="4.92"/>
		<circle class="st3" cx="93.46" cy="76.12" r="4.92"/>
		<circle class="st2" cx="57.74" cy="92.62" r="4.92"/>
		<circle class="st3" cx="75.6" cy="92.62" r="4.92"/>
		<circle class="st3" cx="93.46" cy="92.62" r="4.92"/>
	</g>
</g>
</svg>
